<svg width="165.000000" height="57.000000" viewBox="0 0 165 57" fill="none" xmlns="http://www.w3.org/2000/svg" xmlns:xlink="http://www.w3.org/1999/xlink">
	<desc>
			Created with Pixso.
	</desc>
	<defs>
		<clipPath id="clip2_3">
			<rect id="logo250x100" width="165.000000" height="57.000000" fill="white" fill-opacity="0"/>
		</clipPath>
	</defs>
	<rect id="logo250x100" width="165.000000" height="57.000000" fill="#FFFFFF" fill-opacity="0"/>
	<g clip-path="url(#clip2_3)">
		<path id="LeClassic" d="M74.84 3.29L72.29 3.29L72.29 30L74.84 30L74.84 3.29ZM138.91 6.75Q139.28 6.91 139.72 6.91Q140.17 6.91 140.54 6.74Q140.82 6.61 141.04 6.38Q141.28 6.15 141.41 5.88Q141.59 5.5 141.59 5.04Q141.59 4.75 141.5 4.49Q141.37 4.12 141.04 3.81Q140.82 3.59 140.56 3.47Q140.18 3.29 139.72 3.29Q139.29 3.29 138.93 3.45Q138.63 3.58 138.38 3.83Q138.07 4.14 137.94 4.52Q137.85 4.79 137.85 5.09Q137.85 5.46 137.98 5.78Q138.11 6.11 138.38 6.38Q138.62 6.62 138.91 6.75ZM52.09 29.04Q54.73 30.21 57.89 30.21Q60.7 30.21 63.09 29.26Q64.93 28.52 66.33 27.29Q66.76 26.92 67.14 26.51L65.45 24.81Q64.37 25.93 63.06 26.64Q60.85 27.83 57.99 27.83Q55.76 27.83 53.83 27.07Q53.17 26.81 52.55 26.47Q51.16 25.69 50.12 24.59Q49.32 23.75 48.72 22.73Q48.38 22.15 48.13 21.53Q47.34 19.63 47.34 17.39Q47.34 15.17 48.13 13.28Q48.38 12.66 48.72 12.07Q49.34 11.01 50.18 10.15Q51.2 9.08 52.55 8.33Q53.19 7.97 53.87 7.71Q55.78 6.96 57.99 6.96Q60.76 6.96 62.94 8.09Q64.31 8.8 65.45 9.95L67.14 8.25Q66.64 7.7 66.06 7.23Q64.76 6.17 63.11 5.52Q60.74 4.58 57.92 4.58Q54.84 4.58 52.25 5.7Q51.69 5.94 51.16 6.24Q49.5 7.14 48.24 8.43Q47.19 9.5 46.42 10.83Q45.98 11.58 45.66 12.38Q44.71 14.69 44.71 17.39Q44.71 20.13 45.68 22.47Q46 23.24 46.42 23.97Q47.21 25.33 48.28 26.41Q49.53 27.67 51.14 28.56Q51.61 28.82 52.09 29.04ZM6.95 4.8L4.29 4.8L4.29 30L21.06 30L21.06 27.69L6.95 27.69L6.95 4.8ZM25.31 21.32L41.14 21.32L41.19 20.53Q41.19 17.77 40.04 15.63Q40.02 15.59 39.99 15.55Q39.3 14.27 38.3 13.33Q37.59 12.65 36.72 12.14Q36.28 11.89 35.82 11.68Q34.08 10.91 32 10.91Q30 10.91 28.29 11.63Q27.76 11.85 27.27 12.14Q26.45 12.62 25.78 13.24Q24.7 14.22 23.95 15.56Q23.85 15.76 23.75 15.96Q22.75 18 22.75 20.53Q22.75 22.83 23.61 24.73Q23.79 25.12 24.01 25.5Q24.58 26.5 25.36 27.3Q26.3 28.26 27.52 28.93Q27.56 28.95 27.6 28.97Q29.82 30.17 32.69 30.17Q34.96 30.17 36.85 29.38Q38.13 28.84 39.12 27.97Q39.59 27.56 39.99 27.08L38.56 25.42Q37.93 26.13 37.17 26.64Q36.62 27.01 36 27.28Q34.53 27.9 32.76 27.9Q30.39 27.9 28.63 26.86Q28.07 26.53 27.57 26.09Q26.83 25.43 26.33 24.62Q25.45 23.2 25.31 21.32ZM94.27 12.76Q92.3 10.91 88.6 10.91Q86.45 10.91 84.5 11.53Q84.42 11.56 84.34 11.58Q82.33 12.25 80.9 13.47L82.05 15.38Q83.23 14.33 84.89 13.74Q85.5 13.52 86.13 13.38Q87.21 13.15 88.34 13.15Q90.98 13.15 92.34 14.43Q92.5 14.58 92.65 14.75Q93.71 16 93.71 18.15L93.71 19.3L87.7 19.3Q83.88 19.3 82.14 20.78Q81.39 21.4 80.97 22.2Q80.39 23.28 80.39 24.67Q80.39 26.01 80.93 27.06Q81.4 27.96 82.26 28.66Q84.13 30.17 87.3 30.17Q89.61 30.17 91.28 29.34Q92.56 28.71 93.37 27.7Q93.61 27.39 93.82 27.04L93.82 30L96.27 30L96.27 18.26Q96.27 14.95 94.62 13.11Q94.46 12.93 94.28 12.77L94.27 12.76ZM104.12 29.58Q106.12 30.17 108.29 30.17Q111.96 30.17 114.03 28.72Q115.11 27.96 115.63 26.91Q116.1 25.96 116.1 24.77Q116.1 23.08 115.27 22.06Q115.2 21.98 115.13 21.9Q114.68 21.41 114.14 21.06Q113.52 20.65 112.79 20.42Q111.42 19.98 109.15 19.55Q107.31 19.23 106.27 18.93Q105.23 18.62 104.53 17.97Q104.31 17.77 104.15 17.52Q103.82 16.98 103.82 16.24Q103.82 15.67 104.03 15.18Q104.33 14.49 105.06 13.98Q106.31 13.11 108.75 13.11Q111.53 13.11 113.64 14.29Q114 14.49 114.34 14.73L115.45 12.68Q114.27 11.89 112.43 11.41Q110.59 10.91 108.75 10.91Q105.23 10.91 103.24 12.43Q102.14 13.27 101.66 14.38Q101.27 15.26 101.27 16.32Q101.27 18.12 102.15 19.18Q102.2 19.25 102.26 19.31Q102.73 19.82 103.3 20.19Q103.92 20.6 104.65 20.84Q106.06 21.29 108.36 21.72Q110.09 22.01 111.13 22.31Q112.17 22.61 112.86 23.21Q113.06 23.38 113.21 23.6Q113.54 24.11 113.54 24.84Q113.54 25.57 113.25 26.13Q112.94 26.72 112.3 27.14Q111.06 27.95 108.47 27.95Q106.97 27.95 105.56 27.59Q105.14 27.49 104.72 27.35Q102.93 26.75 101.74 25.82L100.58 27.83Q101.78 28.84 103.88 29.51Q104 29.55 104.12 29.58ZM121.72 29.58Q123.72 30.17 125.89 30.17Q129.57 30.17 131.63 28.72Q132.72 27.96 133.23 26.91Q133.71 25.96 133.71 24.77Q133.71 23.08 132.88 22.06Q132.81 21.98 132.73 21.9Q132.28 21.41 131.74 21.06Q131.13 20.65 130.39 20.42Q129.02 19.98 126.75 19.55Q124.92 19.23 123.87 18.93Q122.83 18.62 122.13 17.97Q121.91 17.77 121.76 17.52Q121.43 16.98 121.43 16.24Q121.43 15.67 121.64 15.18Q121.94 14.49 122.67 13.98Q123.92 13.11 126.36 13.11Q129.13 13.11 131.24 14.29Q131.6 14.49 131.94 14.73L133.06 12.68Q131.87 11.89 130.03 11.41Q128.2 10.91 126.36 10.91Q122.83 10.91 120.85 12.43Q119.75 13.27 119.26 14.38Q118.87 15.26 118.87 16.32Q118.87 18.12 119.76 19.18Q119.81 19.25 119.86 19.31Q120.34 19.82 120.9 20.19Q121.52 20.6 122.25 20.84Q123.66 21.29 125.96 21.72Q127.69 22.01 128.73 22.31Q129.78 22.61 130.46 23.21Q130.67 23.38 130.81 23.6Q131.15 24.11 131.15 24.84Q131.15 25.57 130.85 26.13Q130.54 26.72 129.9 27.14Q128.66 27.95 126.08 27.95Q124.58 27.95 123.17 27.59Q122.74 27.49 122.32 27.35Q120.53 26.75 119.35 25.82L118.19 27.83Q119.38 28.84 121.48 29.51Q121.6 29.55 121.72 29.58ZM151.39 29.19Q153.43 30.17 155.95 30.17Q158.37 30.17 160.31 29.22Q161.33 28.72 162.12 27.98Q162.84 27.3 163.37 26.43L161.46 25.13Q160.82 26.11 159.93 26.73Q159.53 27.01 159.09 27.23Q158.84 27.34 158.58 27.44Q157.35 27.9 155.95 27.9Q154.25 27.9 152.83 27.28Q152.54 27.15 152.26 26.99Q151.54 26.59 150.96 26.04Q150.22 25.34 149.7 24.41Q148.79 22.73 148.79 20.53Q148.79 18.44 149.64 16.79Q149.67 16.73 149.7 16.68Q150.25 15.66 151.06 14.93Q151.6 14.44 152.26 14.07Q152.56 13.9 152.88 13.76Q154.28 13.15 155.95 13.15Q157.26 13.15 158.42 13.57Q158.76 13.69 159.09 13.85Q159.55 14.07 159.95 14.37Q160.83 15 161.46 15.96L163.37 14.66Q162.8 13.73 162.03 13.03Q161.28 12.34 160.33 11.87Q158.4 10.91 155.95 10.91Q153.46 10.91 151.44 11.88Q151.18 12.01 150.93 12.14Q149.84 12.74 148.98 13.58Q148.09 14.45 147.45 15.56Q147.26 15.89 147.1 16.24Q146.19 18.17 146.19 20.53Q146.19 22.78 147.02 24.66Q147.22 25.1 147.45 25.51Q148.12 26.68 149.06 27.58Q149.89 28.37 150.93 28.95Q151.16 29.07 151.39 29.19ZM140.97 11.06L138.42 11.06L138.42 30L140.97 30L140.97 11.06ZM28.92 13.8Q30.29 13.11 32 13.11Q33.8 13.11 35.22 13.85Q35.98 14.25 36.63 14.86Q37.18 15.38 37.59 15.99Q38.56 17.44 38.74 19.41L25.31 19.41Q25.49 17.44 26.46 15.99Q26.87 15.38 27.42 14.86Q28.11 14.21 28.92 13.8ZM91.37 27.2Q89.83 28.16 87.7 28.16Q85.43 28.16 84.17 27.21Q83.61 26.78 83.3 26.22Q82.91 25.52 82.91 24.6Q82.91 23.49 83.43 22.75Q84.5 21.21 87.77 21.21L93.71 21.21L93.71 24.31Q93.14 25.71 92.13 26.62Q91.8 26.92 91.41 27.17Q91.39 27.19 91.37 27.2Z" fill="#5D4B3E" fill-opacity="1.000000" fill-rule="evenodd"/>
		<path id="Магазин одежды" d="M18.72 40.64L18.74 52L19.33 52L19.32 39.4L18.81 39.4L13.03 49.48L7.24 39.4L6.73 39.4L6.73 52L7.33 52L7.33 40.67L12.87 50.25L13.19 50.25L18.72 40.64ZM57.73 47.88Q57.13 47.3 56.04 47.1Q56.95 46.88 57.5 46.33Q57.8 46.03 57.94 45.67Q58.05 45.37 58.05 45.03Q58.05 44.52 57.85 44.1Q57.6 43.58 57.04 43.21Q56.04 42.55 54.51 42.55Q53.71 42.55 52.88 42.77Q52.85 42.78 52.82 42.78Q52.02 43.01 51.26 43.43L51.48 43.91Q52.51 43.31 53.6 43.15Q54.02 43.08 54.45 43.08Q55.73 43.08 56.58 43.61Q57.04 43.89 57.25 44.29Q57.44 44.65 57.44 45.1Q57.44 45.4 57.33 45.65Q57.15 46.09 56.66 46.4Q55.87 46.88 54.67 46.88L53.25 46.88L53.25 47.39L54.67 47.39Q56.07 47.39 56.89 47.89Q57.36 48.18 57.56 48.6Q57.71 48.91 57.71 49.3Q57.71 49.68 57.58 50Q57.36 50.54 56.77 50.93Q56.77 50.93 56.76 50.93Q55.83 51.55 54.51 51.56Q53.97 51.56 53.45 51.47Q53.05 51.4 52.65 51.27Q51.79 50.98 51.18 50.43Q51.15 50.4 51.12 50.37L50.83 50.79Q50.94 50.89 51.04 50.97Q51.68 51.48 52.5 51.76Q52.7 51.83 52.9 51.88Q53.68 52.08 54.51 52.08Q55.51 52.07 56.38 51.74Q57.26 51.4 57.79 50.78Q58.07 50.45 58.2 50.07Q58.32 49.73 58.32 49.35Q58.32 48.82 58.11 48.4Q57.97 48.12 57.73 47.88ZM29.26 43.38Q28.38 42.58 26.77 42.58Q25.95 42.58 25.19 42.79Q24.97 42.86 24.74 42.94Q23.78 43.3 23.09 43.95L23.42 44.38Q24.03 43.8 24.9 43.47Q24.97 43.44 25.04 43.41Q25.84 43.12 26.75 43.12Q28.15 43.12 28.87 43.82Q28.89 43.83 28.9 43.84Q28.94 43.88 28.97 43.92Q29.63 44.63 29.63 45.95L29.63 46.87L26.23 46.87Q24.45 46.87 23.63 47.58Q23.29 47.88 23.1 48.25Q22.83 48.76 22.83 49.42Q22.83 50.08 23.1 50.6Q23.32 51.01 23.71 51.33Q24.61 52.05 26.17 52.05Q27.41 52.05 28.31 51.54Q28.81 51.25 29.18 50.83Q29.45 50.51 29.65 50.12L29.65 52L30.22 52L30.22 45.95Q30.22 44.46 29.48 43.61Q29.41 43.53 29.33 43.45Q29.3 43.42 29.26 43.38ZM47.77 43.38Q46.88 42.58 45.27 42.58Q44.46 42.58 43.7 42.79Q43.47 42.86 43.25 42.94Q42.28 43.3 41.6 43.95L41.92 44.38Q42.53 43.8 43.4 43.47Q43.47 43.44 43.54 43.41Q44.35 43.12 45.25 43.12Q46.65 43.12 47.38 43.82Q47.39 43.83 47.4 43.84Q47.44 43.88 47.48 43.92Q48.13 44.63 48.13 45.95L48.13 46.87L44.73 46.87Q42.95 46.87 42.14 47.58Q41.8 47.88 41.6 48.25Q41.33 48.76 41.33 49.42Q41.33 50.08 41.6 50.6Q41.82 51.01 42.22 51.33Q43.11 52.05 44.68 52.05Q45.92 52.05 46.81 51.54Q47.32 51.25 47.68 50.83Q47.96 50.51 48.15 50.12L48.15 52L48.73 52L48.73 45.95Q48.73 44.46 47.99 43.61Q47.91 43.53 47.83 43.45Q47.8 43.42 47.77 43.38ZM92.21 51.73Q93.03 52.05 93.98 52.05Q95.04 52.05 95.93 51.65Q96.14 51.56 96.34 51.45Q96.78 51.19 97.15 50.85Q97.64 50.38 97.98 49.76Q98.04 49.66 98.09 49.54Q98.57 48.55 98.57 47.31Q98.57 46.08 98.09 45.09Q98.04 44.97 97.98 44.87Q97.64 44.25 97.15 43.78Q96.78 43.44 96.34 43.18Q96.14 43.07 95.93 42.98Q95.04 42.58 93.98 42.58Q93.03 42.58 92.21 42.9Q91.91 43.02 91.63 43.18Q91.16 43.45 90.78 43.82Q90.31 44.27 89.98 44.87Q89.92 44.97 89.87 45.09Q89.39 46.08 89.39 47.31Q89.39 48.55 89.87 49.54Q89.92 49.66 89.98 49.76Q90.31 50.36 90.78 50.81Q91.16 51.18 91.63 51.45Q91.91 51.61 92.21 51.73ZM112.63 47.41L120.82 47.41L120.82 47.24Q120.82 45.95 120.3 44.93Q120.27 44.88 120.24 44.83Q119.88 44.16 119.35 43.68Q119.03 43.39 118.67 43.18Q118.36 42.99 118.03 42.87Q117.29 42.58 116.44 42.58Q115.6 42.58 114.86 42.86Q114.51 42.99 114.19 43.18Q113.83 43.4 113.52 43.69Q112.98 44.18 112.62 44.87Q112.6 44.9 112.58 44.93Q112.05 45.99 112.05 47.31Q112.05 48.49 112.5 49.45Q112.58 49.61 112.66 49.76Q113 50.36 113.48 50.81Q113.87 51.18 114.35 51.45Q114.46 51.51 114.57 51.56Q115.56 52.05 116.79 52.05Q117.7 52.05 118.5 51.75Q118.62 51.7 118.73 51.65Q119.23 51.43 119.65 51.1Q119.98 50.84 120.26 50.52L119.88 50.12Q119.68 50.39 119.43 50.61Q119.04 50.95 118.55 51.16Q118.53 51.17 118.51 51.18Q117.72 51.51 116.79 51.51Q115.83 51.51 115.02 51.16Q114.84 51.08 114.67 50.99Q114.2 50.73 113.83 50.37Q113.46 50 113.19 49.53Q113.11 49.4 113.04 49.26Q112.64 48.42 112.63 47.41ZM34.63 43.19L40.25 43.19L40.25 42.65L34.04 42.65L34.04 52L34.63 52L34.63 43.19ZM62.23 42.65L61.63 42.65L61.63 52L62.14 52L69.17 43.61L69.17 52L69.77 52L69.77 42.65L69.25 42.65L62.23 51.04L62.23 42.65ZM74.41 42.65L73.82 42.65L73.82 52L74.41 52L74.41 47.55L81.15 47.55L81.15 52L81.74 52L81.74 42.65L81.15 42.65L81.15 47.03L74.41 47.03L74.41 42.65ZM110.2 54.37L110.2 51.47L108.67 51.47L108.67 42.65L102.37 42.65L102.22 45.71Q102.13 47.48 101.98 48.66Q101.83 49.83 101.45 50.64Q101.18 51.22 100.74 51.4Q100.57 51.46 100.39 51.47L99.83 51.47L99.83 54.37L100.4 54.37L100.4 52L109.62 52L109.62 54.37L110.2 54.37ZM128.93 47.51L131.28 47.51L134.61 52L135.33 52L131.76 47.23L135.06 42.65L134.37 42.65L131.28 46.99L128.93 46.99L128.93 42.65L128.36 42.65L128.36 46.99L126.04 46.99L122.94 42.65L122.26 42.65L125.55 47.23L121.99 52L122.71 52L126.04 47.51L128.36 47.51L128.36 52L128.93 52L128.93 47.51ZM146.34 54.37L146.34 51.47L144.81 51.47L144.81 42.65L138.51 42.65L138.37 45.71Q138.28 47.48 138.12 48.66Q137.97 49.83 137.59 50.64Q137.32 51.22 136.88 51.4Q136.72 51.46 136.53 51.47L135.97 51.47L135.97 54.37L136.55 54.37L136.55 52L145.76 52L145.76 54.37L146.34 54.37ZM155.28 46.89Q154.39 46.16 152.66 46.13L149.74 46.09L149.74 42.65L149.15 42.65L149.15 52L152.48 52.03Q154.28 52.05 155.23 51.28Q155.46 51.1 155.64 50.87Q156.19 50.15 156.19 49.02Q156.19 47.98 155.68 47.31Q155.51 47.08 155.28 46.89ZM158.6 42.65L158 42.65L158 52L158.6 52L158.6 42.65ZM115.02 43.38Q115.68 43.12 116.44 43.12Q117.26 43.12 117.95 43.42Q118.14 43.5 118.32 43.61Q118.6 43.77 118.85 43.98Q119.33 44.39 119.67 44.97Q119.76 45.12 119.84 45.29Q120.2 46.03 120.26 46.92L112.65 46.92Q112.69 46.03 113.04 45.29Q113.11 45.13 113.2 44.97Q113.53 44.41 113.99 44.01Q114.25 43.78 114.55 43.61Q114.78 43.48 115.02 43.38ZM95.65 51.17Q94.89 51.51 93.98 51.51Q93.1 51.51 92.36 51.19Q92.14 51.1 91.93 50.98Q91.59 50.78 91.31 50.52Q90.83 50.09 90.51 49.49Q90.49 49.46 90.47 49.42Q89.98 48.49 89.98 47.31Q89.98 46.13 90.47 45.21Q90.49 45.18 90.51 45.15Q90.83 44.56 91.3 44.14Q91.59 43.87 91.93 43.67Q92.15 43.55 92.38 43.45Q93.11 43.14 93.98 43.14Q94.87 43.14 95.62 43.47Q95.83 43.56 96.02 43.67Q96.38 43.88 96.68 44.15Q97.14 44.57 97.45 45.15Q97.47 45.18 97.49 45.21Q97.98 46.13 97.98 47.31Q97.98 48.49 97.49 49.42Q97.48 49.46 97.45 49.49Q97.14 50.08 96.67 50.5Q96.38 50.77 96.02 50.98Q95.84 51.09 95.65 51.17ZM102.39 49.49Q102.69 47.98 102.78 45.73L102.91 43.19L108.07 43.19L108.07 51.47L101.36 51.47Q102.1 51.01 102.39 49.49ZM138.53 49.49Q138.83 47.98 138.93 45.73L139.05 43.19L144.22 43.19L144.22 51.47L137.5 51.47Q138.24 51.01 138.53 49.49ZM154.8 50.92Q154.01 51.55 152.48 51.53L149.74 51.51L149.74 46.58L152.48 46.61Q154.05 46.65 154.82 47.24Q154.99 47.37 155.13 47.53Q155.59 48.09 155.59 49.04Q155.59 49.99 155.13 50.58Q154.99 50.77 154.8 50.92ZM28.43 50.91Q27.54 51.55 26.21 51.55Q24.91 51.55 24.17 50.97Q23.85 50.73 23.67 50.41Q23.42 49.97 23.42 49.38Q23.42 48.82 23.66 48.4Q23.82 48.12 24.09 47.9Q24.77 47.35 26.23 47.35L29.63 47.35L29.63 49.3Q29.2 50.35 28.43 50.91ZM46.93 50.91Q46.05 51.55 44.71 51.55Q43.42 51.55 42.67 50.97Q42.36 50.73 42.17 50.41Q41.92 49.97 41.92 49.38Q41.92 48.82 42.17 48.4Q42.33 48.12 42.59 47.9Q43.27 47.35 44.73 47.35L48.13 47.35L48.13 49.3Q47.71 50.35 46.93 50.91Z" fill="#5D4B3E" fill-opacity="1.000000" fill-rule="evenodd"/>
	</g>
</svg>
